<?xml version="1.0" encoding="UTF-8" standalone="no"?>
<!DOCTYPE svg PUBLIC "-//W3C//DTD SVG 1.1//EN" "http://www.w3.org/Graphics/SVG/1.1/DTD/svg11.dtd">
<svg width="100%" height="100%" viewBox="0 0 21 22" version="1.1" xmlns="http://www.w3.org/2000/svg" xmlns:xlink="http://www.w3.org/1999/xlink" xml:space="preserve" xmlns:serif="http://www.serif.com/" style="fill-rule:evenodd;clip-rule:evenodd;stroke-linejoin:round;stroke-miterlimit:2;">
    <g transform="matrix(1,0,0,1,-1619.28,-449.929)">
        <g id="path874" transform="matrix(1,0,0,1,1619.28,449.929)">
            <path d="M6,20.606C1.957,18.848 0,15.524 0,10.418C0,6.426 0.501,5.044 2.773,2.773C5.057,0.489 6.419,0 10.5,0C17.511,0 21,3.489 21,10.5C21,14.501 20.5,15.954 18.403,18.052C15.599,20.856 9.474,22.117 6,20.606ZM13.167,16C12.983,15.45 11.783,15 10.5,15C9.217,15 8.017,15.45 7.833,16C7.65,16.55 8.85,17 10.5,17C12.15,17 13.35,16.55 13.167,16ZM8,9.5C8,8.767 7.438,7.979 6.75,7.75C6.006,7.502 5.5,8.211 5.5,9.5C5.5,10.789 6.006,11.498 6.75,11.25C7.438,11.021 8,10.233 8,9.5ZM15.5,9.5C15.5,7.391 14.045,6.809 13,8.5C12.271,9.68 13.217,11.5 14.559,11.5C15.077,11.5 15.5,10.6 15.5,9.5ZM7.471,5.539C9.852,4.034 8.228,3.715 5.5,5.153C4.122,5.879 3.673,6.47 4.5,6.47C5.325,6.47 6.662,6.051 7.471,5.539ZM17.417,6.135C17.188,5.935 15.875,5.186 14.5,4.472C12.213,3.283 12.117,3.314 13.372,4.836C14.127,5.751 15.44,6.5 16.289,6.5C17.138,6.5 17.646,6.336 17.417,6.135Z" style="fill-rule:nonzero;"/>
        </g>
    </g>
</svg>
