<?xml version="1.0" encoding="UTF-8" standalone="no"?>
<!DOCTYPE svg PUBLIC "-//W3C//DTD SVG 1.1//EN" "http://www.w3.org/Graphics/SVG/1.1/DTD/svg11.dtd">
<svg width="100%" height="100%" viewBox="0 0 358 358" version="1.1" xmlns="http://www.w3.org/2000/svg" xmlns:xlink="http://www.w3.org/1999/xlink" xml:space="preserve" xmlns:serif="http://www.serif.com/" style="fill-rule:evenodd;clip-rule:evenodd;stroke-linejoin:round;stroke-miterlimit:2;">
    <g transform="matrix(1,0,0,1,-221.143,-179.174)">
        <g transform="matrix(0.870686,0,0,0.870686,51.7254,96.8249)">
            <path d="M605.421,197.29C605.421,140.602 559.398,94.579 502.71,94.579L297.29,94.579C240.602,94.579 194.579,140.602 194.579,197.29L194.579,402.71C194.579,459.398 240.602,505.421 297.29,505.421L502.71,505.421C559.398,505.421 605.421,459.398 605.421,402.71L605.421,197.29Z" style="fill:rgb(88,101,242);"/>
        </g>
        <g id="path848" transform="matrix(2.86176,0,0,2.86176,297.215,281.233)">
            <path d="M13.478,52.105C5.882,48.894 0.928,45.531 0.34,43.186C-1.301,36.651 3.25,17.434 8.601,8.304C10.874,4.425 11.862,3.744 18.158,1.716C24.917,-0.461 25.229,-0.477 26.512,1.278C28.487,3.979 43.494,3.962 45.48,1.256C46.787,-0.525 47.088,-0.502 54.105,1.91L61.375,4.41L64.768,11.152C68.928,19.415 70.761,26.081 71.603,36C72.349,44.806 71.746,45.766 62.705,50.142C54.031,54.341 53.292,54.405 51.584,51.101C50.142,48.313 50.183,48.141 52.532,47.071C55.677,45.638 55.848,43.399 52.735,44.403C51.498,44.802 47.223,45.853 43.235,46.739C36.57,48.22 35.401,48.22 28.735,46.739C24.748,45.853 20.473,44.802 19.235,44.403C16.123,43.399 16.294,45.638 19.439,47.071C21.776,48.136 21.823,48.325 20.413,51.05C18.707,54.35 18.768,54.341 13.478,52.104L13.478,52.105ZM29.242,33.781C33.092,28.6 28.46,20.822 22.427,22.336C19.504,23.07 16.609,28.685 17.647,31.605C19.725,37.448 25.686,38.566 29.242,33.781ZM52.53,34.861C55.217,31.892 54.98,26.135 52.075,23.782C50.804,22.753 48.964,21.911 47.985,21.911C45.252,21.911 42.055,25.079 41.41,28.427C40.146,34.988 48.199,39.648 52.53,34.861Z" style="fill:white;fill-rule:nonzero;"/>
        </g>
    </g>
</svg>
