<?xml version="1.0" encoding="UTF-8" standalone="no"?>
<!DOCTYPE svg PUBLIC "-//W3C//DTD SVG 1.1//EN" "http://www.w3.org/Graphics/SVG/1.1/DTD/svg11.dtd">
<svg width="100%" height="100%" viewBox="0 0 21 16" version="1.1" xmlns="http://www.w3.org/2000/svg" xmlns:xlink="http://www.w3.org/1999/xlink" xml:space="preserve" xmlns:serif="http://www.serif.com/" style="fill-rule:evenodd;clip-rule:evenodd;stroke-linejoin:round;stroke-miterlimit:2;">
    <g transform="matrix(1,0,0,1,-207.208,-326.53)">
        <g id="path828" transform="matrix(1,0,0,1,207.208,326.53)">
            <path d="M5.884,13.805C5.884,12.597 4.767,10.444 3.402,9.019C2.036,7.594 0.63,4.981 0.277,3.214C-0.277,0.445 -0.087,0 1.651,0C3.017,0 3.888,0.886 4.353,2.75C5.352,6.752 7.673,8.881 11.771,9.556C17.792,10.548 20.884,12.097 20.884,14.121C20.884,15.793 20.056,16 13.384,16C6.328,16 5.884,15.87 5.884,13.805ZM9.924,6.548C7.267,3.347 11.169,-1.57 14.634,0.612C16.856,2.011 17.399,4.675 15.844,6.548C14.299,8.409 11.468,8.409 9.924,6.548Z" style="fill-rule:nonzero;"/>
        </g>
    </g>
</svg>
